<mxfile host="app.diagrams.net" modified="2023-12-24T06:52:27.613Z" agent="Mozilla/5.0 (Windows NT 10.0; Win64; x64) AppleWebKit/537.36 (KHTML, like Gecko) Chrome/120.0.0.0 Safari/537.36 Edg/120.0.0.0" etag="RerKiH8BZZ38uER61ul4" version="22.1.11" type="device">
  <diagram name="Page-1" id="gBENnRs5nI7LDhErZCVO">
    <mxGraphModel dx="2852" dy="1502" grid="1" gridSize="10" guides="1" tooltips="1" connect="1" arrows="1" fold="1" page="1" pageScale="1" pageWidth="850" pageHeight="1100" math="0" shadow="0">
      <root>
        <mxCell id="0" />
        <mxCell id="1" parent="0" />
        <mxCell id="3VFCQNdzrhuu_o5iozgW-63" value="Stage" style="html=1;whiteSpace=wrap;fillColor=#bac8d3;strokeColor=#23445d;align=right;verticalAlign=bottom;fontSize=25;" vertex="1" parent="1">
          <mxGeometry x="40" y="932.5" width="810" height="595" as="geometry" />
        </mxCell>
        <mxCell id="3VFCQNdzrhuu_o5iozgW-24" value="Core" style="html=1;whiteSpace=wrap;fillColor=#f8cecc;strokeColor=#b85450;align=right;verticalAlign=bottom;fontSize=25;" vertex="1" parent="1">
          <mxGeometry x="40" y="40" width="680" height="860" as="geometry" />
        </mxCell>
        <mxCell id="zREBdyt6PTl3s11dmr7Y-125" value="Save" style="html=1;whiteSpace=wrap;fillColor=#b1ddf0;strokeColor=#10739e;align=right;verticalAlign=bottom;fontSize=25;" parent="1" vertex="1">
          <mxGeometry x="890" y="1248.5" width="510" height="370" as="geometry" />
        </mxCell>
        <mxCell id="zREBdyt6PTl3s11dmr7Y-124" value="Sound" style="html=1;whiteSpace=wrap;fillColor=#d5e8d4;strokeColor=#82b366;fontSize=25;align=right;verticalAlign=bottom;" parent="1" vertex="1">
          <mxGeometry x="890" y="870" width="840" height="340" as="geometry" />
        </mxCell>
        <mxCell id="zREBdyt6PTl3s11dmr7Y-123" value="UI" style="html=1;whiteSpace=wrap;fillColor=#fff2cc;strokeColor=#d6b656;align=right;verticalAlign=bottom;fontSize=25;" parent="1" vertex="1">
          <mxGeometry x="760" y="40" width="930" height="790" as="geometry" />
        </mxCell>
        <mxCell id="zREBdyt6PTl3s11dmr7Y-1" value="&lt;p style=&quot;margin:0px;margin-top:4px;text-align:center;&quot;&gt;&lt;b&gt;UserInputHandler&lt;/b&gt;&lt;/p&gt;&lt;hr size=&quot;1&quot;&gt;&lt;p style=&quot;margin:0px;margin-left:4px;&quot;&gt;+ OnSpaceKeyPressed: event Action&lt;/p&gt;&lt;p style=&quot;margin:0px;margin-left:4px;&quot;&gt;+ OnBKeyPressed: event Action&lt;/p&gt;&lt;p style=&quot;margin:0px;margin-left:4px;&quot;&gt;+ OnNKeyPressed: event Action&lt;/p&gt;&lt;p style=&quot;margin:0px;margin-left:4px;&quot;&gt;+ OnMKeyPressed: event Action&lt;/p&gt;&lt;p style=&quot;margin:0px;margin-left:4px;&quot;&gt;+ OnEscapeKeyPressed: event Action&lt;/p&gt;&lt;p style=&quot;margin:0px;margin-left:4px;&quot;&gt;&lt;br&gt;&lt;/p&gt;&lt;p style=&quot;margin:0px;margin-left:4px;&quot;&gt;- ESCAPE_KEY_EVENT_COOLTIME: const float&lt;/p&gt;&lt;p style=&quot;margin:0px;margin-left:4px;&quot;&gt;- elapsedTimeFromPreviousEscapeKeyPress: float&lt;/p&gt;&lt;hr size=&quot;1&quot;&gt;&lt;p style=&quot;margin:0px;margin-left:4px;&quot;&gt;+ Update(): void&lt;/p&gt;" style="verticalAlign=top;align=left;overflow=fill;fontSize=12;fontFamily=Helvetica;html=1;whiteSpace=wrap;fillColor=#e1d5e7;strokeColor=#9673a6;" parent="1" vertex="1">
          <mxGeometry x="350" y="700" width="280" height="182" as="geometry" />
        </mxCell>
        <mxCell id="zREBdyt6PTl3s11dmr7Y-2" value="&lt;p style=&quot;margin:0px;margin-top:4px;text-align:center;&quot;&gt;&lt;b&gt;GameManager&lt;/b&gt;&lt;/p&gt;&lt;hr size=&quot;1&quot;&gt;&lt;p style=&quot;margin:0px;margin-left:4px;&quot;&gt;- currentGameState: GameState&lt;/p&gt;&lt;p style=&quot;margin:0px;margin-left:4px;&quot;&gt;- correctShoutType: ShoutType&lt;/p&gt;&lt;p style=&quot;margin:0px;margin-left:4px;&quot;&gt;&lt;br&gt;&lt;/p&gt;&lt;p style=&quot;margin:0px;margin-left:4px;&quot;&gt;- userInputHander: UserInputHandler&lt;/p&gt;&lt;p style=&quot;margin:0px;margin-left:4px;&quot;&gt;&lt;br&gt;&lt;/p&gt;&lt;p style=&quot;margin:0px;margin-left:4px;&quot;&gt;- announcePreparationCoroutine: Coroutine&lt;/p&gt;&lt;p style=&quot;margin:0px;margin-left:4px;&quot;&gt;- annouceTime: float&lt;/p&gt;&lt;p style=&quot;margin:0px;margin-left:4px;&quot;&gt;- shoutDuration: float&lt;/p&gt;&lt;p style=&quot;margin:0px;margin-left:4px;&quot;&gt;- correctAnswerTime: float&lt;/p&gt;&lt;p style=&quot;margin:0px;margin-left:4px;&quot;&gt;&lt;br&gt;&lt;/p&gt;&lt;p style=&quot;margin:0px;margin-left:4px;&quot;&gt;+ OnGameStart: event Action&lt;/p&gt;&lt;p style=&quot;margin:0px;margin-left:4px;&quot;&gt;+ OnGameRestart: event Action&lt;/p&gt;&lt;p style=&quot;margin:0px;margin-left:4px;&quot;&gt;+ OnAnnounceMade: event Action&lt;/p&gt;&lt;p style=&quot;margin:0px;margin-left:4px;&quot;&gt;+ OnShoutEnter&lt;/p&gt;&lt;p style=&quot;margin:0px;margin-left:4px;&quot;&gt;+ OnShoutEnd&lt;/p&gt;&lt;p style=&quot;margin:0px;margin-left:4px;&quot;&gt;+ OnBestScoreUpdated: event Action&lt;/p&gt;&lt;p style=&quot;margin:0px;margin-left:4px;&quot;&gt;+ OnResultEnter: event Action&lt;/p&gt;&lt;p style=&quot;margin:0px;margin-left:4px;&quot;&gt;+ OnBackTitle: event Action&lt;/p&gt;&lt;p style=&quot;margin:0px;margin-left:4px;&quot;&gt;+ OnGameReset: event Action&lt;/p&gt;&lt;hr size=&quot;1&quot;&gt;&lt;p style=&quot;margin:0px;margin-left:4px;&quot;&gt;&lt;span style=&quot;background-color: initial;&quot;&gt;- Initialize(): void&lt;/span&gt;&lt;br&gt;&lt;/p&gt;&lt;p style=&quot;margin:0px;margin-left:4px;&quot;&gt;&lt;br&gt;&lt;/p&gt;&lt;p style=&quot;margin:0px;margin-left:4px;&quot;&gt;- StartGame(): void&lt;/p&gt;&lt;p style=&quot;margin:0px;margin-left:4px;&quot;&gt;+ OnTransitionToInGameFinish(): void&lt;/p&gt;&lt;p style=&quot;margin:0px;margin-left:4px;&quot;&gt;- WaitBeforeAnnouncePreparation: IEnumerator&lt;/p&gt;&lt;p style=&quot;margin:0px;margin-left:4px;&quot;&gt;- DoAnnouncePreparation: IEnumerator&lt;/p&gt;&lt;p style=&quot;margin:0px;margin-left:4px;&quot;&gt;- WaitBeforePenalty(float): IEnumerator&lt;/p&gt;&lt;p style=&quot;margin:0px;margin-left:4px;&quot;&gt;- ForceShout(): IEnumerator&lt;/p&gt;&lt;p style=&quot;margin:0px;margin-left:4px;&quot;&gt;- ShowResponse(): IEnumerator&lt;/p&gt;&lt;p style=&quot;margin:0px;margin-left:4px;&quot;&gt;- ShowResult(): void&lt;/p&gt;&lt;p style=&quot;margin:0px;margin-left:4px;&quot;&gt;+ OnTransitionToTitleFinish(): void&lt;/p&gt;&lt;p style=&quot;margin:0px;margin-left:4px;&quot;&gt;&lt;br&gt;&lt;/p&gt;&lt;p style=&quot;margin:0px;margin-left:4px;&quot;&gt;- OnDestroy(): void&lt;/p&gt;" style="verticalAlign=top;align=left;overflow=fill;fontSize=12;fontFamily=Helvetica;html=1;whiteSpace=wrap;" parent="1" vertex="1">
          <mxGeometry x="350" y="170" width="260" height="510" as="geometry" />
        </mxCell>
        <mxCell id="zREBdyt6PTl3s11dmr7Y-3" value="TitleUI" style="swimlane;fontStyle=1;align=center;verticalAlign=top;childLayout=stackLayout;horizontal=1;startSize=26;horizontalStack=0;resizeParent=1;resizeParentMax=0;resizeLast=0;collapsible=1;marginBottom=0;whiteSpace=wrap;html=1;fillColor=#e1d5e7;strokeColor=#9673a6;" parent="1" vertex="1">
          <mxGeometry x="1140" y="310" width="170" height="180" as="geometry" />
        </mxCell>
        <mxCell id="zREBdyt6PTl3s11dmr7Y-4" value="- background: Image&lt;br&gt;- panel: Image&lt;br&gt;-&amp;nbsp;title: GameObject&lt;br&gt;- instruction: PlayInstruction&lt;br&gt;- guideToNext: TextMeshPro&lt;br&gt;- bestScore: BestScore" style="text;strokeColor=none;fillColor=none;align=left;verticalAlign=top;spacingLeft=4;spacingRight=4;overflow=hidden;rotatable=0;points=[[0,0.5],[1,0.5]];portConstraint=eastwest;whiteSpace=wrap;html=1;" parent="zREBdyt6PTl3s11dmr7Y-3" vertex="1">
          <mxGeometry y="26" width="170" height="94" as="geometry" />
        </mxCell>
        <mxCell id="zREBdyt6PTl3s11dmr7Y-5" value="" style="line;strokeWidth=1;fillColor=none;align=left;verticalAlign=middle;spacingTop=-1;spacingLeft=3;spacingRight=3;rotatable=0;labelPosition=right;points=[];portConstraint=eastwest;strokeColor=inherit;" parent="zREBdyt6PTl3s11dmr7Y-3" vertex="1">
          <mxGeometry y="120" width="170" height="8" as="geometry" />
        </mxCell>
        <mxCell id="zREBdyt6PTl3s11dmr7Y-6" value="+ Initialize(): void&lt;br&gt;+ SetVisible(bool): void&lt;br&gt;+ UpdateBestScore(): void" style="text;strokeColor=none;fillColor=none;align=left;verticalAlign=top;spacingLeft=4;spacingRight=4;overflow=hidden;rotatable=0;points=[[0,0.5],[1,0.5]];portConstraint=eastwest;whiteSpace=wrap;html=1;" parent="zREBdyt6PTl3s11dmr7Y-3" vertex="1">
          <mxGeometry y="128" width="170" height="52" as="geometry" />
        </mxCell>
        <mxCell id="zREBdyt6PTl3s11dmr7Y-7" value="InGameUI" style="swimlane;fontStyle=1;align=center;verticalAlign=top;childLayout=stackLayout;horizontal=1;startSize=26;horizontalStack=0;resizeParent=1;resizeParentMax=0;resizeLast=0;collapsible=1;marginBottom=0;whiteSpace=wrap;html=1;fillColor=#e1d5e7;strokeColor=#9673a6;" parent="1" vertex="1">
          <mxGeometry x="1140" y="500" width="160" height="118" as="geometry" />
        </mxCell>
        <mxCell id="zREBdyt6PTl3s11dmr7Y-8" value="- background: Image&lt;br&gt;- text: TextMeshProUGUI" style="text;strokeColor=none;fillColor=none;align=left;verticalAlign=top;spacingLeft=4;spacingRight=4;overflow=hidden;rotatable=0;points=[[0,0.5],[1,0.5]];portConstraint=eastwest;whiteSpace=wrap;html=1;" parent="zREBdyt6PTl3s11dmr7Y-7" vertex="1">
          <mxGeometry y="26" width="160" height="44" as="geometry" />
        </mxCell>
        <mxCell id="zREBdyt6PTl3s11dmr7Y-9" value="" style="line;strokeWidth=1;fillColor=none;align=left;verticalAlign=middle;spacingTop=-1;spacingLeft=3;spacingRight=3;rotatable=0;labelPosition=right;points=[];portConstraint=eastwest;strokeColor=inherit;" parent="zREBdyt6PTl3s11dmr7Y-7" vertex="1">
          <mxGeometry y="70" width="160" height="8" as="geometry" />
        </mxCell>
        <mxCell id="zREBdyt6PTl3s11dmr7Y-10" value="+ SetVisible(bool): void" style="text;strokeColor=none;fillColor=none;align=left;verticalAlign=top;spacingLeft=4;spacingRight=4;overflow=hidden;rotatable=0;points=[[0,0.5],[1,0.5]];portConstraint=eastwest;whiteSpace=wrap;html=1;" parent="zREBdyt6PTl3s11dmr7Y-7" vertex="1">
          <mxGeometry y="78" width="160" height="40" as="geometry" />
        </mxCell>
        <mxCell id="zREBdyt6PTl3s11dmr7Y-11" value="ResultUI" style="swimlane;fontStyle=1;align=center;verticalAlign=top;childLayout=stackLayout;horizontal=1;startSize=26;horizontalStack=0;resizeParent=1;resizeParentMax=0;resizeLast=0;collapsible=1;marginBottom=0;whiteSpace=wrap;html=1;fillColor=#e1d5e7;strokeColor=#9673a6;" parent="1" vertex="1">
          <mxGeometry x="1140" y="630" width="230" height="180" as="geometry" />
        </mxCell>
        <mxCell id="zREBdyt6PTl3s11dmr7Y-12" value="- background: Image&lt;br&gt;- panel: Image&lt;br&gt;- score_real: TextMeshProUGUI&lt;br&gt;- score_fake: TextMeshProUGUI&lt;br&gt;- guidesToNext: List&amp;lt;TextmeshProUGUI&amp;gt;" style="text;strokeColor=none;fillColor=none;align=left;verticalAlign=top;spacingLeft=4;spacingRight=4;overflow=hidden;rotatable=0;points=[[0,0.5],[1,0.5]];portConstraint=eastwest;whiteSpace=wrap;html=1;" parent="zREBdyt6PTl3s11dmr7Y-11" vertex="1">
          <mxGeometry y="26" width="230" height="84" as="geometry" />
        </mxCell>
        <mxCell id="zREBdyt6PTl3s11dmr7Y-13" value="" style="line;strokeWidth=1;fillColor=none;align=left;verticalAlign=middle;spacingTop=-1;spacingLeft=3;spacingRight=3;rotatable=0;labelPosition=right;points=[];portConstraint=eastwest;strokeColor=inherit;" parent="zREBdyt6PTl3s11dmr7Y-11" vertex="1">
          <mxGeometry y="110" width="230" height="8" as="geometry" />
        </mxCell>
        <mxCell id="zREBdyt6PTl3s11dmr7Y-14" value="+ Initialize(): void&lt;br&gt;+ SetVisible(bool): void&lt;br&gt;- UpdateScore(bool, float): void" style="text;strokeColor=none;fillColor=none;align=left;verticalAlign=top;spacingLeft=4;spacingRight=4;overflow=hidden;rotatable=0;points=[[0,0.5],[1,0.5]];portConstraint=eastwest;whiteSpace=wrap;html=1;" parent="zREBdyt6PTl3s11dmr7Y-11" vertex="1">
          <mxGeometry y="118" width="230" height="62" as="geometry" />
        </mxCell>
        <mxCell id="zREBdyt6PTl3s11dmr7Y-19" value="MonoBehaviour" style="swimlane;fontStyle=1;align=center;verticalAlign=top;childLayout=stackLayout;horizontal=1;startSize=26;horizontalStack=0;resizeParent=1;resizeParentMax=0;resizeLast=0;collapsible=1;marginBottom=0;whiteSpace=wrap;html=1;fillColor=#e1d5e7;strokeColor=#9673a6;" parent="1" vertex="1">
          <mxGeometry x="80" y="50" width="160" height="34" as="geometry" />
        </mxCell>
        <mxCell id="zREBdyt6PTl3s11dmr7Y-21" value="" style="line;strokeWidth=1;fillColor=none;align=left;verticalAlign=middle;spacingTop=-1;spacingLeft=3;spacingRight=3;rotatable=0;labelPosition=right;points=[];portConstraint=eastwest;strokeColor=inherit;" parent="zREBdyt6PTl3s11dmr7Y-19" vertex="1">
          <mxGeometry y="26" width="160" height="8" as="geometry" />
        </mxCell>
        <mxCell id="zREBdyt6PTl3s11dmr7Y-23" value="SingletonMonoBehaviour" style="swimlane;fontStyle=1;align=center;verticalAlign=top;childLayout=stackLayout;horizontal=1;startSize=26;horizontalStack=0;resizeParent=1;resizeParentMax=0;resizeLast=0;collapsible=1;marginBottom=0;whiteSpace=wrap;html=1;fillColor=#e1d5e7;strokeColor=#9673a6;" parent="1" vertex="1">
          <mxGeometry x="350" y="50" width="160" height="60" as="geometry" />
        </mxCell>
        <mxCell id="zREBdyt6PTl3s11dmr7Y-24" value="+ Instance" style="text;strokeColor=none;fillColor=none;align=left;verticalAlign=top;spacingLeft=4;spacingRight=4;overflow=hidden;rotatable=0;points=[[0,0.5],[1,0.5]];portConstraint=eastwest;whiteSpace=wrap;html=1;" parent="zREBdyt6PTl3s11dmr7Y-23" vertex="1">
          <mxGeometry y="26" width="160" height="26" as="geometry" />
        </mxCell>
        <mxCell id="zREBdyt6PTl3s11dmr7Y-25" value="" style="line;strokeWidth=1;fillColor=none;align=left;verticalAlign=middle;spacingTop=-1;spacingLeft=3;spacingRight=3;rotatable=0;labelPosition=right;points=[];portConstraint=eastwest;strokeColor=inherit;" parent="zREBdyt6PTl3s11dmr7Y-23" vertex="1">
          <mxGeometry y="52" width="160" height="8" as="geometry" />
        </mxCell>
        <mxCell id="zREBdyt6PTl3s11dmr7Y-28" value="Extends" style="endArrow=block;endSize=16;endFill=0;html=1;rounded=0;exitX=0.31;exitY=0.002;exitDx=0;exitDy=0;entryX=0.5;entryY=1;entryDx=0;entryDy=0;exitPerimeter=0;" parent="1" source="zREBdyt6PTl3s11dmr7Y-2" target="zREBdyt6PTl3s11dmr7Y-23" edge="1">
          <mxGeometry width="160" relative="1" as="geometry">
            <mxPoint x="430" y="190" as="sourcePoint" />
            <mxPoint x="430" y="136" as="targetPoint" />
          </mxGeometry>
        </mxCell>
        <mxCell id="zREBdyt6PTl3s11dmr7Y-42" value="&lt;p style=&quot;margin:0px;margin-top:4px;text-align:center;&quot;&gt;&lt;i&gt;&amp;lt;&amp;lt;Enumeration&amp;gt;&amp;gt;&lt;/i&gt;&lt;br&gt;&lt;b&gt;GameState&lt;/b&gt;&lt;/p&gt;&lt;hr size=&quot;1&quot;&gt;&lt;p style=&quot;margin:0px;margin-left:4px;&quot;&gt;+ TITLE&lt;br&gt;&lt;/p&gt;&lt;p style=&quot;margin:0px;margin-left:4px;&quot;&gt;+ INGAME_INITIAL&lt;/p&gt;&lt;p style=&quot;margin:0px;margin-left:4px;&quot;&gt;+ WAITING_ANNOUNCE&lt;/p&gt;&lt;p style=&quot;margin:0px;margin-left:4px;&quot;&gt;+ AFTER_ANNOUNCE&lt;/p&gt;&lt;p style=&quot;margin:0px;margin-left:4px;&quot;&gt;+ PLAYER_SHOUTING&lt;/p&gt;&lt;p style=&quot;margin:0px;margin-left:4px;&quot;&gt;+ SHOW_RESPONSE&lt;/p&gt;&lt;p style=&quot;margin:0px;margin-left:4px;&quot;&gt;+ RESULT&lt;/p&gt;" style="verticalAlign=top;align=left;overflow=fill;fontSize=12;fontFamily=Helvetica;html=1;whiteSpace=wrap;" parent="1" vertex="1">
          <mxGeometry x="80" y="170" width="190" height="150" as="geometry" />
        </mxCell>
        <mxCell id="zREBdyt6PTl3s11dmr7Y-53" value="&lt;p style=&quot;margin:0px;margin-top:4px;text-align:center;&quot;&gt;&lt;i&gt;&amp;lt;&amp;lt;Enumeration&amp;gt;&amp;gt;&lt;/i&gt;&lt;br&gt;&lt;b&gt;ShoutType&lt;/b&gt;&lt;/p&gt;&lt;hr size=&quot;1&quot;&gt;&lt;p style=&quot;margin:0px;margin-left:4px;&quot;&gt;+ HAPPY_BIRTHDAY&lt;/p&gt;&lt;p style=&quot;margin:0px;margin-left:4px;&quot;&gt;+ HAPPY_NEW_YEAR&lt;/p&gt;&lt;p style=&quot;margin:0px;margin-left:4px;&quot;&gt;+ MERRY_CHRISTMAS&lt;/p&gt;" style="verticalAlign=top;align=left;overflow=fill;fontSize=12;fontFamily=Helvetica;html=1;whiteSpace=wrap;" parent="1" vertex="1">
          <mxGeometry x="80" y="340" width="190" height="90" as="geometry" />
        </mxCell>
        <mxCell id="zREBdyt6PTl3s11dmr7Y-54" value="have" style="endArrow=open;endFill=1;endSize=12;html=1;rounded=0;entryX=1.002;entryY=0.133;entryDx=0;entryDy=0;entryPerimeter=0;exitX=0.001;exitY=0.064;exitDx=0;exitDy=0;exitPerimeter=0;" parent="1" edge="1">
          <mxGeometry x="0.001" width="160" relative="1" as="geometry">
            <mxPoint x="350" y="360" as="sourcePoint" />
            <mxPoint x="270" y="360" as="targetPoint" />
            <mxPoint as="offset" />
          </mxGeometry>
        </mxCell>
        <mxCell id="zREBdyt6PTl3s11dmr7Y-55" value="have" style="endArrow=open;endFill=1;endSize=12;html=1;rounded=0;entryX=1.002;entryY=0.133;entryDx=0;entryDy=0;entryPerimeter=0;exitX=0.001;exitY=0.064;exitDx=0;exitDy=0;exitPerimeter=0;" parent="1" edge="1">
          <mxGeometry x="0.001" width="160" relative="1" as="geometry">
            <mxPoint x="350" y="190" as="sourcePoint" />
            <mxPoint x="270" y="190" as="targetPoint" />
            <mxPoint as="offset" />
          </mxGeometry>
        </mxCell>
        <mxCell id="zREBdyt6PTl3s11dmr7Y-56" value="SoundPlayer" style="swimlane;fontStyle=1;align=center;verticalAlign=top;childLayout=stackLayout;horizontal=1;startSize=26;horizontalStack=0;resizeParent=1;resizeParentMax=0;resizeLast=0;collapsible=1;marginBottom=0;whiteSpace=wrap;html=1;" parent="1" vertex="1">
          <mxGeometry x="900" y="900" width="240" height="158" as="geometry" />
        </mxCell>
        <mxCell id="zREBdyt6PTl3s11dmr7Y-57" value="- audioSource: AudioSource&lt;br&gt;- SOUNDTABLE_PATH: const string&lt;br&gt;- soundTable: SoundTable" style="text;strokeColor=none;fillColor=none;align=left;verticalAlign=top;spacingLeft=4;spacingRight=4;overflow=hidden;rotatable=0;points=[[0,0.5],[1,0.5]];portConstraint=eastwest;whiteSpace=wrap;html=1;" parent="zREBdyt6PTl3s11dmr7Y-56" vertex="1">
          <mxGeometry y="26" width="240" height="54" as="geometry" />
        </mxCell>
        <mxCell id="zREBdyt6PTl3s11dmr7Y-58" value="" style="line;strokeWidth=1;fillColor=none;align=left;verticalAlign=middle;spacingTop=-1;spacingLeft=3;spacingRight=3;rotatable=0;labelPosition=right;points=[];portConstraint=eastwest;strokeColor=inherit;" parent="zREBdyt6PTl3s11dmr7Y-56" vertex="1">
          <mxGeometry y="80" width="240" height="8" as="geometry" />
        </mxCell>
        <mxCell id="zREBdyt6PTl3s11dmr7Y-59" value="+ Initialze(): void&lt;br&gt;+ Play(Audioclip): void&lt;br&gt;+ PlayOneShot(AudioClip): float&lt;br&gt;+ Stop(): void" style="text;strokeColor=none;fillColor=none;align=left;verticalAlign=top;spacingLeft=4;spacingRight=4;overflow=hidden;rotatable=0;points=[[0,0.5],[1,0.5]];portConstraint=eastwest;whiteSpace=wrap;html=1;" parent="zREBdyt6PTl3s11dmr7Y-56" vertex="1">
          <mxGeometry y="88" width="240" height="70" as="geometry" />
        </mxCell>
        <mxCell id="zREBdyt6PTl3s11dmr7Y-60" value="Singleton" style="swimlane;fontStyle=1;align=center;verticalAlign=top;childLayout=stackLayout;horizontal=1;startSize=26;horizontalStack=0;resizeParent=1;resizeParentMax=0;resizeLast=0;collapsible=1;marginBottom=0;whiteSpace=wrap;html=1;" parent="1" vertex="1">
          <mxGeometry x="940" y="1130" width="160" height="60" as="geometry" />
        </mxCell>
        <mxCell id="zREBdyt6PTl3s11dmr7Y-61" value="+ Instance" style="text;strokeColor=none;fillColor=none;align=left;verticalAlign=top;spacingLeft=4;spacingRight=4;overflow=hidden;rotatable=0;points=[[0,0.5],[1,0.5]];portConstraint=eastwest;whiteSpace=wrap;html=1;" parent="zREBdyt6PTl3s11dmr7Y-60" vertex="1">
          <mxGeometry y="26" width="160" height="26" as="geometry" />
        </mxCell>
        <mxCell id="zREBdyt6PTl3s11dmr7Y-62" value="" style="line;strokeWidth=1;fillColor=none;align=left;verticalAlign=middle;spacingTop=-1;spacingLeft=3;spacingRight=3;rotatable=0;labelPosition=right;points=[];portConstraint=eastwest;strokeColor=inherit;" parent="zREBdyt6PTl3s11dmr7Y-60" vertex="1">
          <mxGeometry y="52" width="160" height="8" as="geometry" />
        </mxCell>
        <mxCell id="zREBdyt6PTl3s11dmr7Y-64" value="Extends" style="endArrow=block;endSize=16;endFill=0;html=1;rounded=0;exitX=0.498;exitY=1.009;exitDx=0;exitDy=0;exitPerimeter=0;" parent="1" source="zREBdyt6PTl3s11dmr7Y-59" target="zREBdyt6PTl3s11dmr7Y-60" edge="1">
          <mxGeometry width="160" relative="1" as="geometry">
            <mxPoint x="1100" y="1020" as="sourcePoint" />
            <mxPoint x="1260" y="1020" as="targetPoint" />
          </mxGeometry>
        </mxCell>
        <mxCell id="zREBdyt6PTl3s11dmr7Y-65" value="SoundTable" style="swimlane;fontStyle=1;align=center;verticalAlign=top;childLayout=stackLayout;horizontal=1;startSize=26;horizontalStack=0;resizeParent=1;resizeParentMax=0;resizeLast=0;collapsible=1;marginBottom=0;whiteSpace=wrap;html=1;" parent="1" vertex="1">
          <mxGeometry x="1180" y="900" width="250" height="104" as="geometry" />
        </mxCell>
        <mxCell id="zREBdyt6PTl3s11dmr7Y-66" value="- soundNameList: List&amp;lt;SoundName&amp;gt;&lt;br&gt;- audioClipList: List&amp;lt;AudioClip&amp;gt;" style="text;strokeColor=none;fillColor=none;align=left;verticalAlign=top;spacingLeft=4;spacingRight=4;overflow=hidden;rotatable=0;points=[[0,0.5],[1,0.5]];portConstraint=eastwest;whiteSpace=wrap;html=1;" parent="zREBdyt6PTl3s11dmr7Y-65" vertex="1">
          <mxGeometry y="26" width="250" height="44" as="geometry" />
        </mxCell>
        <mxCell id="zREBdyt6PTl3s11dmr7Y-67" value="" style="line;strokeWidth=1;fillColor=none;align=left;verticalAlign=middle;spacingTop=-1;spacingLeft=3;spacingRight=3;rotatable=0;labelPosition=right;points=[];portConstraint=eastwest;strokeColor=inherit;" parent="zREBdyt6PTl3s11dmr7Y-65" vertex="1">
          <mxGeometry y="70" width="250" height="8" as="geometry" />
        </mxCell>
        <mxCell id="zREBdyt6PTl3s11dmr7Y-68" value="+ GetSoundClip(SoundName): AudioClip" style="text;strokeColor=none;fillColor=none;align=left;verticalAlign=top;spacingLeft=4;spacingRight=4;overflow=hidden;rotatable=0;points=[[0,0.5],[1,0.5]];portConstraint=eastwest;whiteSpace=wrap;html=1;" parent="zREBdyt6PTl3s11dmr7Y-65" vertex="1">
          <mxGeometry y="78" width="250" height="26" as="geometry" />
        </mxCell>
        <mxCell id="zREBdyt6PTl3s11dmr7Y-69" value="ScriptableObject" style="swimlane;fontStyle=1;align=center;verticalAlign=top;childLayout=stackLayout;horizontal=1;startSize=26;horizontalStack=0;resizeParent=1;resizeParentMax=0;resizeLast=0;collapsible=1;marginBottom=0;whiteSpace=wrap;html=1;fillColor=#ffe6cc;strokeColor=#d79b00;" parent="1" vertex="1">
          <mxGeometry x="1220" y="1140" width="160" height="60" as="geometry" />
        </mxCell>
        <mxCell id="zREBdyt6PTl3s11dmr7Y-70" value="+ Instance" style="text;strokeColor=none;fillColor=none;align=left;verticalAlign=top;spacingLeft=4;spacingRight=4;overflow=hidden;rotatable=0;points=[[0,0.5],[1,0.5]];portConstraint=eastwest;whiteSpace=wrap;html=1;" parent="zREBdyt6PTl3s11dmr7Y-69" vertex="1">
          <mxGeometry y="26" width="160" height="26" as="geometry" />
        </mxCell>
        <mxCell id="zREBdyt6PTl3s11dmr7Y-71" value="" style="line;strokeWidth=1;fillColor=none;align=left;verticalAlign=middle;spacingTop=-1;spacingLeft=3;spacingRight=3;rotatable=0;labelPosition=right;points=[];portConstraint=eastwest;strokeColor=inherit;" parent="zREBdyt6PTl3s11dmr7Y-69" vertex="1">
          <mxGeometry y="52" width="160" height="8" as="geometry" />
        </mxCell>
        <mxCell id="zREBdyt6PTl3s11dmr7Y-72" value="Extends" style="endArrow=block;endSize=16;endFill=0;html=1;rounded=0;exitX=0.48;exitY=0.979;exitDx=0;exitDy=0;exitPerimeter=0;" parent="1" source="zREBdyt6PTl3s11dmr7Y-68" target="zREBdyt6PTl3s11dmr7Y-69" edge="1">
          <mxGeometry width="160" relative="1" as="geometry">
            <mxPoint x="1230" y="1080" as="sourcePoint" />
            <mxPoint x="1390" y="1080" as="targetPoint" />
          </mxGeometry>
        </mxCell>
        <mxCell id="zREBdyt6PTl3s11dmr7Y-73" value="&lt;p style=&quot;margin:0px;margin-top:4px;text-align:center;&quot;&gt;&lt;i&gt;&amp;lt;&amp;lt;Enumeration&amp;gt;&amp;gt;&lt;/i&gt;&lt;br&gt;&lt;b&gt;SoundName&lt;/b&gt;&lt;/p&gt;&lt;hr size=&quot;1&quot;&gt;&lt;p style=&quot;margin:0px;margin-left:4px;&quot;&gt;+ TRANSITION_BUZZER&lt;/p&gt;&lt;p style=&quot;margin:0px;margin-left:4px;&quot;&gt;+ HAPPY_BIRTHDAY&lt;/p&gt;&lt;p style=&quot;margin:0px;margin-left:4px;&quot;&gt;+ HAPPY_NEW_YEAR&lt;/p&gt;&lt;p style=&quot;margin:0px;margin-left:4px;&quot;&gt;+ MERRY_CHRISTMAS&lt;/p&gt;&lt;p style=&quot;margin:0px;margin-left:4px;&quot;&gt;+ DRUM_ROLL&lt;/p&gt;&lt;p style=&quot;margin:0px;margin-left:4px;&quot;&gt;+ DRUM_ROLL_FINISH&lt;/p&gt;&lt;p style=&quot;margin:0px;margin-left:4px;&quot;&gt;+ RESPONSE_TO_CORRECT_SHOUT&lt;/p&gt;&lt;p style=&quot;margin:0px;margin-left:4px;&quot;&gt;+ RESPONSE_TO_WRONG_SHOUT&lt;/p&gt;" style="verticalAlign=top;align=left;overflow=fill;fontSize=12;fontFamily=Helvetica;html=1;whiteSpace=wrap;" parent="1" vertex="1">
          <mxGeometry x="1500" y="900" width="220" height="170" as="geometry" />
        </mxCell>
        <mxCell id="zREBdyt6PTl3s11dmr7Y-74" value="" style="endArrow=open;endFill=1;endSize=12;html=1;rounded=0;exitX=1.002;exitY=0.151;exitDx=0;exitDy=0;exitPerimeter=0;entryX=-0.002;entryY=0.093;entryDx=0;entryDy=0;entryPerimeter=0;" parent="1" source="zREBdyt6PTl3s11dmr7Y-65" target="zREBdyt6PTl3s11dmr7Y-73" edge="1">
          <mxGeometry width="160" relative="1" as="geometry">
            <mxPoint x="1450" y="1100" as="sourcePoint" />
            <mxPoint x="1610" y="1100" as="targetPoint" />
          </mxGeometry>
        </mxCell>
        <mxCell id="zREBdyt6PTl3s11dmr7Y-76" value="BestScore" style="swimlane;fontStyle=1;align=center;verticalAlign=top;childLayout=stackLayout;horizontal=1;startSize=26;horizontalStack=0;resizeParent=1;resizeParentMax=0;resizeLast=0;collapsible=1;marginBottom=0;whiteSpace=wrap;html=1;fillColor=#e1d5e7;strokeColor=#9673a6;" parent="1" vertex="1">
          <mxGeometry x="1430" y="410" width="210" height="110" as="geometry" />
        </mxCell>
        <mxCell id="zREBdyt6PTl3s11dmr7Y-77" value="- bestScore: TextMeshProUGUI" style="text;strokeColor=none;fillColor=none;align=left;verticalAlign=top;spacingLeft=4;spacingRight=4;overflow=hidden;rotatable=0;points=[[0,0.5],[1,0.5]];portConstraint=eastwest;whiteSpace=wrap;html=1;" parent="zREBdyt6PTl3s11dmr7Y-76" vertex="1">
          <mxGeometry y="26" width="210" height="26" as="geometry" />
        </mxCell>
        <mxCell id="zREBdyt6PTl3s11dmr7Y-78" value="" style="line;strokeWidth=1;fillColor=none;align=left;verticalAlign=middle;spacingTop=-1;spacingLeft=3;spacingRight=3;rotatable=0;labelPosition=right;points=[];portConstraint=eastwest;strokeColor=inherit;" parent="zREBdyt6PTl3s11dmr7Y-76" vertex="1">
          <mxGeometry y="52" width="210" height="8" as="geometry" />
        </mxCell>
        <mxCell id="zREBdyt6PTl3s11dmr7Y-79" value="+ Initialize(): void&lt;br&gt;+ SetVisible(bool): void&lt;br&gt;+ UpdateView(): void" style="text;strokeColor=none;fillColor=none;align=left;verticalAlign=top;spacingLeft=4;spacingRight=4;overflow=hidden;rotatable=0;points=[[0,0.5],[1,0.5]];portConstraint=eastwest;whiteSpace=wrap;html=1;" parent="zREBdyt6PTl3s11dmr7Y-76" vertex="1">
          <mxGeometry y="60" width="210" height="50" as="geometry" />
        </mxCell>
        <mxCell id="zREBdyt6PTl3s11dmr7Y-85" value="Singleton" style="swimlane;fontStyle=1;align=center;verticalAlign=top;childLayout=stackLayout;horizontal=1;startSize=26;horizontalStack=0;resizeParent=1;resizeParentMax=0;resizeLast=0;collapsible=1;marginBottom=0;whiteSpace=wrap;html=1;" parent="1" vertex="1">
          <mxGeometry x="870" y="760" width="160" height="60" as="geometry" />
        </mxCell>
        <mxCell id="zREBdyt6PTl3s11dmr7Y-86" value="+ Instance" style="text;strokeColor=none;fillColor=none;align=left;verticalAlign=top;spacingLeft=4;spacingRight=4;overflow=hidden;rotatable=0;points=[[0,0.5],[1,0.5]];portConstraint=eastwest;whiteSpace=wrap;html=1;" parent="zREBdyt6PTl3s11dmr7Y-85" vertex="1">
          <mxGeometry y="26" width="160" height="26" as="geometry" />
        </mxCell>
        <mxCell id="zREBdyt6PTl3s11dmr7Y-87" value="" style="line;strokeWidth=1;fillColor=none;align=left;verticalAlign=middle;spacingTop=-1;spacingLeft=3;spacingRight=3;rotatable=0;labelPosition=right;points=[];portConstraint=eastwest;strokeColor=inherit;" parent="zREBdyt6PTl3s11dmr7Y-85" vertex="1">
          <mxGeometry y="52" width="160" height="8" as="geometry" />
        </mxCell>
        <mxCell id="zREBdyt6PTl3s11dmr7Y-90" value="UIManager" style="swimlane;fontStyle=1;align=center;verticalAlign=top;childLayout=stackLayout;horizontal=1;startSize=26;horizontalStack=0;resizeParent=1;resizeParentMax=0;resizeLast=0;collapsible=1;marginBottom=0;whiteSpace=wrap;html=1;" parent="1" vertex="1">
          <mxGeometry x="780" y="310" width="310" height="410" as="geometry" />
        </mxCell>
        <mxCell id="zREBdyt6PTl3s11dmr7Y-91" value="- titleUI: TitleUI&lt;br&gt;- inGameUI: InGameUI&lt;br&gt;- resultUI: ResultUI&lt;br&gt;- transitionAnimation: TransitionAnimation&lt;br&gt;- speechBubbleGenerator: SpeechBubbleGenerator&lt;br&gt;+ OnTransitionEnter: event Action &amp;lt;GameState, Action&amp;gt;&lt;br&gt;+ OnTransitionProgressEvent&amp;lt;GameState&amp;gt;" style="text;strokeColor=none;fillColor=none;align=left;verticalAlign=top;spacingLeft=4;spacingRight=4;overflow=hidden;rotatable=0;points=[[0,0.5],[1,0.5]];portConstraint=eastwest;whiteSpace=wrap;html=1;" parent="zREBdyt6PTl3s11dmr7Y-90" vertex="1">
          <mxGeometry y="26" width="310" height="104" as="geometry" />
        </mxCell>
        <mxCell id="zREBdyt6PTl3s11dmr7Y-92" value="" style="line;strokeWidth=1;fillColor=none;align=left;verticalAlign=middle;spacingTop=-1;spacingLeft=3;spacingRight=3;rotatable=0;labelPosition=right;points=[];portConstraint=eastwest;strokeColor=inherit;" parent="zREBdyt6PTl3s11dmr7Y-90" vertex="1">
          <mxGeometry y="130" width="310" height="8" as="geometry" />
        </mxCell>
        <mxCell id="zREBdyt6PTl3s11dmr7Y-93" value="+ Initialize(): void&lt;br&gt;&lt;br&gt;- OnGameStart(): void&lt;br&gt;- SetVisibilityOnGameStart: void&lt;br&gt;&lt;br&gt;- OnGameRestart(): void&lt;br&gt;- SetVisibilityOnGameRestart(): void&lt;br&gt;&lt;br&gt;- OnResultEnter(): void&lt;br&gt;&lt;br&gt;- OnBackTitle(): void&lt;br&gt;- SetVisibilityOnBackTitle(): void&lt;br&gt;&lt;br&gt;- OnGameReset(): void&lt;br&gt;&lt;br&gt;- UpdateBestScore(): void&lt;br&gt;&lt;br&gt;- OnTransitionProgress(GameState): void" style="text;strokeColor=none;fillColor=none;align=left;verticalAlign=top;spacingLeft=4;spacingRight=4;overflow=hidden;rotatable=0;points=[[0,0.5],[1,0.5]];portConstraint=eastwest;whiteSpace=wrap;html=1;" parent="zREBdyt6PTl3s11dmr7Y-90" vertex="1">
          <mxGeometry y="138" width="310" height="272" as="geometry" />
        </mxCell>
        <mxCell id="zREBdyt6PTl3s11dmr7Y-96" value="" style="endArrow=diamondThin;endFill=0;endSize=24;html=1;rounded=0;entryX=1;entryY=0.04;entryDx=0;entryDy=0;entryPerimeter=0;exitX=-0.003;exitY=0.047;exitDx=0;exitDy=0;exitPerimeter=0;" parent="1" source="zREBdyt6PTl3s11dmr7Y-4" target="zREBdyt6PTl3s11dmr7Y-91" edge="1">
          <mxGeometry width="160" relative="1" as="geometry">
            <mxPoint x="1130" y="340" as="sourcePoint" />
            <mxPoint x="1080" y="340" as="targetPoint" />
          </mxGeometry>
        </mxCell>
        <mxCell id="zREBdyt6PTl3s11dmr7Y-97" value="PlayInstruction" style="swimlane;fontStyle=1;align=center;verticalAlign=top;childLayout=stackLayout;horizontal=1;startSize=26;horizontalStack=0;resizeParent=1;resizeParentMax=0;resizeLast=0;collapsible=1;marginBottom=0;whiteSpace=wrap;html=1;fillColor=#e1d5e7;strokeColor=#9673a6;" parent="1" vertex="1">
          <mxGeometry x="1430" y="310" width="250" height="90" as="geometry" />
        </mxCell>
        <mxCell id="zREBdyt6PTl3s11dmr7Y-98" value="-instructionTextList: List&amp;lt;TextMeshProUGUI&amp;gt;&lt;br&gt;- keycapIconList: List&amp;lt;Image&amp;gt;" style="text;strokeColor=none;fillColor=none;align=left;verticalAlign=top;spacingLeft=4;spacingRight=4;overflow=hidden;rotatable=0;points=[[0,0.5],[1,0.5]];portConstraint=eastwest;whiteSpace=wrap;html=1;" parent="zREBdyt6PTl3s11dmr7Y-97" vertex="1">
          <mxGeometry y="26" width="250" height="34" as="geometry" />
        </mxCell>
        <mxCell id="zREBdyt6PTl3s11dmr7Y-99" value="" style="line;strokeWidth=1;fillColor=none;align=left;verticalAlign=middle;spacingTop=-1;spacingLeft=3;spacingRight=3;rotatable=0;labelPosition=right;points=[];portConstraint=eastwest;strokeColor=inherit;" parent="zREBdyt6PTl3s11dmr7Y-97" vertex="1">
          <mxGeometry y="60" width="250" height="8" as="geometry" />
        </mxCell>
        <mxCell id="zREBdyt6PTl3s11dmr7Y-100" value="+ SetVisible(bool): void" style="text;strokeColor=none;fillColor=none;align=left;verticalAlign=top;spacingLeft=4;spacingRight=4;overflow=hidden;rotatable=0;points=[[0,0.5],[1,0.5]];portConstraint=eastwest;whiteSpace=wrap;html=1;" parent="zREBdyt6PTl3s11dmr7Y-97" vertex="1">
          <mxGeometry y="68" width="250" height="22" as="geometry" />
        </mxCell>
        <mxCell id="zREBdyt6PTl3s11dmr7Y-102" value="" style="endArrow=diamondThin;endFill=0;endSize=24;html=1;rounded=0;entryX=1.001;entryY=0.232;entryDx=0;entryDy=0;entryPerimeter=0;exitX=-0.003;exitY=0.094;exitDx=0;exitDy=0;exitPerimeter=0;" parent="1" source="zREBdyt6PTl3s11dmr7Y-7" target="zREBdyt6PTl3s11dmr7Y-93" edge="1">
          <mxGeometry width="160" relative="1" as="geometry">
            <mxPoint x="1080" y="590" as="sourcePoint" />
            <mxPoint x="1240" y="590" as="targetPoint" />
          </mxGeometry>
        </mxCell>
        <mxCell id="zREBdyt6PTl3s11dmr7Y-109" value="SaveManager" style="swimlane;fontStyle=1;align=center;verticalAlign=top;childLayout=stackLayout;horizontal=1;startSize=26;horizontalStack=0;resizeParent=1;resizeParentMax=0;resizeLast=0;collapsible=1;marginBottom=0;whiteSpace=wrap;html=1;" parent="1" vertex="1">
          <mxGeometry x="1130" y="1276.5" width="210" height="210" as="geometry" />
        </mxCell>
        <mxCell id="zREBdyt6PTl3s11dmr7Y-110" value="SAVEDATA_PATH: readonly string&lt;br&gt;saveData: SaveData" style="text;strokeColor=none;fillColor=none;align=left;verticalAlign=top;spacingLeft=4;spacingRight=4;overflow=hidden;rotatable=0;points=[[0,0.5],[1,0.5]];portConstraint=eastwest;whiteSpace=wrap;html=1;" parent="zREBdyt6PTl3s11dmr7Y-109" vertex="1">
          <mxGeometry y="26" width="210" height="34" as="geometry" />
        </mxCell>
        <mxCell id="zREBdyt6PTl3s11dmr7Y-111" value="" style="line;strokeWidth=1;fillColor=none;align=left;verticalAlign=middle;spacingTop=-1;spacingLeft=3;spacingRight=3;rotatable=0;labelPosition=right;points=[];portConstraint=eastwest;strokeColor=inherit;" parent="zREBdyt6PTl3s11dmr7Y-109" vertex="1">
          <mxGeometry y="60" width="210" height="8" as="geometry" />
        </mxCell>
        <mxCell id="zREBdyt6PTl3s11dmr7Y-112" value="+ Initialize(): void&lt;br&gt;&lt;br&gt;+ Save(): void&lt;br&gt;+ Load(): void&lt;br&gt;&lt;br&gt;+ ResetSaveData(): void&lt;br&gt;&lt;br&gt;+ GetQuickestShoutTime(): float&lt;br&gt;+ SetQuickestShoutTime(float): void" style="text;strokeColor=none;fillColor=none;align=left;verticalAlign=top;spacingLeft=4;spacingRight=4;overflow=hidden;rotatable=0;points=[[0,0.5],[1,0.5]];portConstraint=eastwest;whiteSpace=wrap;html=1;" parent="zREBdyt6PTl3s11dmr7Y-109" vertex="1">
          <mxGeometry y="68" width="210" height="142" as="geometry" />
        </mxCell>
        <mxCell id="zREBdyt6PTl3s11dmr7Y-113" value="Singleton" style="swimlane;fontStyle=1;align=center;verticalAlign=top;childLayout=stackLayout;horizontal=1;startSize=26;horizontalStack=0;resizeParent=1;resizeParentMax=0;resizeLast=0;collapsible=1;marginBottom=0;whiteSpace=wrap;html=1;" parent="1" vertex="1">
          <mxGeometry x="1155" y="1548.5" width="160" height="60" as="geometry" />
        </mxCell>
        <mxCell id="zREBdyt6PTl3s11dmr7Y-114" value="+ Instance" style="text;strokeColor=none;fillColor=none;align=left;verticalAlign=top;spacingLeft=4;spacingRight=4;overflow=hidden;rotatable=0;points=[[0,0.5],[1,0.5]];portConstraint=eastwest;whiteSpace=wrap;html=1;" parent="zREBdyt6PTl3s11dmr7Y-113" vertex="1">
          <mxGeometry y="26" width="160" height="26" as="geometry" />
        </mxCell>
        <mxCell id="zREBdyt6PTl3s11dmr7Y-115" value="" style="line;strokeWidth=1;fillColor=none;align=left;verticalAlign=middle;spacingTop=-1;spacingLeft=3;spacingRight=3;rotatable=0;labelPosition=right;points=[];portConstraint=eastwest;strokeColor=inherit;" parent="zREBdyt6PTl3s11dmr7Y-113" vertex="1">
          <mxGeometry y="52" width="160" height="8" as="geometry" />
        </mxCell>
        <mxCell id="zREBdyt6PTl3s11dmr7Y-117" value="Extends" style="endArrow=block;endSize=16;endFill=0;html=1;rounded=0;entryX=0.5;entryY=0;entryDx=0;entryDy=0;" parent="1" source="zREBdyt6PTl3s11dmr7Y-112" target="zREBdyt6PTl3s11dmr7Y-113" edge="1">
          <mxGeometry width="160" relative="1" as="geometry">
            <mxPoint x="1090" y="1448.5" as="sourcePoint" />
            <mxPoint x="1250" y="1448.5" as="targetPoint" />
          </mxGeometry>
        </mxCell>
        <mxCell id="zREBdyt6PTl3s11dmr7Y-118" value="SaveData" style="swimlane;fontStyle=1;align=center;verticalAlign=top;childLayout=stackLayout;horizontal=1;startSize=26;horizontalStack=0;resizeParent=1;resizeParentMax=0;resizeLast=0;collapsible=1;marginBottom=0;whiteSpace=wrap;html=1;" parent="1" vertex="1">
          <mxGeometry x="910" y="1276.5" width="160" height="60" as="geometry" />
        </mxCell>
        <mxCell id="zREBdyt6PTl3s11dmr7Y-119" value="+ quickestShoutTime: float" style="text;strokeColor=none;fillColor=none;align=left;verticalAlign=top;spacingLeft=4;spacingRight=4;overflow=hidden;rotatable=0;points=[[0,0.5],[1,0.5]];portConstraint=eastwest;whiteSpace=wrap;html=1;" parent="zREBdyt6PTl3s11dmr7Y-118" vertex="1">
          <mxGeometry y="26" width="160" height="26" as="geometry" />
        </mxCell>
        <mxCell id="zREBdyt6PTl3s11dmr7Y-120" value="" style="line;strokeWidth=1;fillColor=none;align=left;verticalAlign=middle;spacingTop=-1;spacingLeft=3;spacingRight=3;rotatable=0;labelPosition=right;points=[];portConstraint=eastwest;strokeColor=inherit;" parent="zREBdyt6PTl3s11dmr7Y-118" vertex="1">
          <mxGeometry y="52" width="160" height="8" as="geometry" />
        </mxCell>
        <mxCell id="zREBdyt6PTl3s11dmr7Y-122" value="" style="endArrow=open;startArrow=circlePlus;endFill=0;startFill=0;endSize=8;html=1;rounded=0;exitX=1;exitY=0.25;exitDx=0;exitDy=0;" parent="1" source="zREBdyt6PTl3s11dmr7Y-118" edge="1">
          <mxGeometry width="160" relative="1" as="geometry">
            <mxPoint x="920" y="1388.5" as="sourcePoint" />
            <mxPoint x="1130" y="1291.5" as="targetPoint" />
          </mxGeometry>
        </mxCell>
        <mxCell id="3VFCQNdzrhuu_o5iozgW-1" value="" style="endArrow=diamondThin;endFill=0;endSize=24;html=1;rounded=0;entryX=1.004;entryY=0.202;entryDx=0;entryDy=0;entryPerimeter=0;exitX=-0.003;exitY=0.094;exitDx=0;exitDy=0;exitPerimeter=0;" edge="1" parent="1">
          <mxGeometry width="160" relative="1" as="geometry">
            <mxPoint x="1140" y="640" as="sourcePoint" />
            <mxPoint x="1091" y="640" as="targetPoint" />
          </mxGeometry>
        </mxCell>
        <mxCell id="3VFCQNdzrhuu_o5iozgW-2" value="TransitionAnimation" style="swimlane;fontStyle=1;align=center;verticalAlign=top;childLayout=stackLayout;horizontal=1;startSize=26;horizontalStack=0;resizeParent=1;resizeParentMax=0;resizeLast=0;collapsible=1;marginBottom=0;whiteSpace=wrap;html=1;fillColor=#e1d5e7;strokeColor=#9673a6;" vertex="1" parent="1">
          <mxGeometry x="780" y="50" width="320" height="210" as="geometry" />
        </mxCell>
        <mxCell id="3VFCQNdzrhuu_o5iozgW-3" value="- transitionAnimator: Animator&lt;br&gt;- transitionDuration: float&lt;br&gt;- TRANSITION_ANIMATION_CLIP_PATH: const string&lt;br&gt;- nextState: GameState&lt;br&gt;- actionOnTransitionProgress: event Action&lt;br&gt;+ OnTransitionProgressEvent: event Action&amp;lt;GameState&amp;gt;:" style="text;strokeColor=none;fillColor=none;align=left;verticalAlign=top;spacingLeft=4;spacingRight=4;overflow=hidden;rotatable=0;points=[[0,0.5],[1,0.5]];portConstraint=eastwest;whiteSpace=wrap;html=1;" vertex="1" parent="3VFCQNdzrhuu_o5iozgW-2">
          <mxGeometry y="26" width="320" height="94" as="geometry" />
        </mxCell>
        <mxCell id="3VFCQNdzrhuu_o5iozgW-4" value="" style="line;strokeWidth=1;fillColor=none;align=left;verticalAlign=middle;spacingTop=-1;spacingLeft=3;spacingRight=3;rotatable=0;labelPosition=right;points=[];portConstraint=eastwest;strokeColor=inherit;" vertex="1" parent="3VFCQNdzrhuu_o5iozgW-2">
          <mxGeometry y="120" width="320" height="8" as="geometry" />
        </mxCell>
        <mxCell id="3VFCQNdzrhuu_o5iozgW-5" value="+ Initialize(): void&lt;br&gt;- Invoke(GameState, Action): void&lt;br&gt;- DoTransition: IEnumerator&lt;br&gt;+ OnTransitionProgress(): void&lt;br&gt;+ OnTransitionComplete(): void" style="text;strokeColor=none;fillColor=none;align=left;verticalAlign=top;spacingLeft=4;spacingRight=4;overflow=hidden;rotatable=0;points=[[0,0.5],[1,0.5]];portConstraint=eastwest;whiteSpace=wrap;html=1;" vertex="1" parent="3VFCQNdzrhuu_o5iozgW-2">
          <mxGeometry y="128" width="320" height="82" as="geometry" />
        </mxCell>
        <mxCell id="3VFCQNdzrhuu_o5iozgW-6" value="Extends" style="endArrow=block;endSize=16;endFill=0;html=1;rounded=0;exitX=0.55;exitY=0.999;exitDx=0;exitDy=0;exitPerimeter=0;entryX=0.5;entryY=0;entryDx=0;entryDy=0;" edge="1" parent="1" source="zREBdyt6PTl3s11dmr7Y-93" target="zREBdyt6PTl3s11dmr7Y-85">
          <mxGeometry width="160" relative="1" as="geometry">
            <mxPoint x="890" y="710" as="sourcePoint" />
            <mxPoint x="1050" y="710" as="targetPoint" />
          </mxGeometry>
        </mxCell>
        <mxCell id="3VFCQNdzrhuu_o5iozgW-7" value="SpeechBubbleGenerator" style="swimlane;fontStyle=1;align=center;verticalAlign=top;childLayout=stackLayout;horizontal=1;startSize=26;horizontalStack=0;resizeParent=1;resizeParentMax=0;resizeLast=0;collapsible=1;marginBottom=0;whiteSpace=wrap;html=1;fillColor=#e1d5e7;strokeColor=#9673a6;" vertex="1" parent="1">
          <mxGeometry x="1140" y="50" width="355" height="220" as="geometry" />
        </mxCell>
        <mxCell id="3VFCQNdzrhuu_o5iozgW-8" value="- canvas: Transform&lt;br&gt;- happyBirthdayBubble: GameObject&lt;br&gt;- happyNewYearBubble: GameObject&lt;br&gt;- merryChristmasBubble: GameObject&lt;br&gt;- speechBubbleAnimation: AnimationClip&lt;br&gt;- MIN_X_ON_LEFT_GENERATION: const float&lt;br&gt;- MAX_X_ON_LEFT_GENERATION: const float&lt;br&gt;- MIN_X_ON_RIGHT_GENERATION: const loat&lt;br&gt;- MAX_X_ON_RIGHT_GENERATION: const float" style="text;strokeColor=none;fillColor=none;align=left;verticalAlign=top;spacingLeft=4;spacingRight=4;overflow=hidden;rotatable=0;points=[[0,0.5],[1,0.5]];portConstraint=eastwest;whiteSpace=wrap;html=1;" vertex="1" parent="3VFCQNdzrhuu_o5iozgW-7">
          <mxGeometry y="26" width="355" height="134" as="geometry" />
        </mxCell>
        <mxCell id="3VFCQNdzrhuu_o5iozgW-9" value="" style="line;strokeWidth=1;fillColor=none;align=left;verticalAlign=middle;spacingTop=-1;spacingLeft=3;spacingRight=3;rotatable=0;labelPosition=right;points=[];portConstraint=eastwest;strokeColor=inherit;" vertex="1" parent="3VFCQNdzrhuu_o5iozgW-7">
          <mxGeometry y="160" width="355" height="8" as="geometry" />
        </mxCell>
        <mxCell id="3VFCQNdzrhuu_o5iozgW-10" value="+ Initialize(): void&lt;br&gt;- Generate(ShoutType): void&lt;br&gt;- SetupBubble(GameObject): void" style="text;strokeColor=none;fillColor=none;align=left;verticalAlign=top;spacingLeft=4;spacingRight=4;overflow=hidden;rotatable=0;points=[[0,0.5],[1,0.5]];portConstraint=eastwest;whiteSpace=wrap;html=1;" vertex="1" parent="3VFCQNdzrhuu_o5iozgW-7">
          <mxGeometry y="168" width="355" height="52" as="geometry" />
        </mxCell>
        <mxCell id="3VFCQNdzrhuu_o5iozgW-12" value="" style="endArrow=diamondThin;endFill=0;endSize=24;html=1;rounded=0;exitX=0.484;exitY=1.003;exitDx=0;exitDy=0;exitPerimeter=0;entryX=0.5;entryY=0;entryDx=0;entryDy=0;" edge="1" parent="1" source="3VFCQNdzrhuu_o5iozgW-5" target="zREBdyt6PTl3s11dmr7Y-90">
          <mxGeometry width="160" relative="1" as="geometry">
            <mxPoint x="920" y="280" as="sourcePoint" />
            <mxPoint x="1080" y="280" as="targetPoint" />
          </mxGeometry>
        </mxCell>
        <mxCell id="3VFCQNdzrhuu_o5iozgW-13" value="" style="endArrow=diamondThin;endFill=0;endSize=24;html=1;rounded=0;entryX=0.871;entryY=-0.001;entryDx=0;entryDy=0;entryPerimeter=0;exitX=0.141;exitY=1.001;exitDx=0;exitDy=0;exitPerimeter=0;" edge="1" parent="1" source="3VFCQNdzrhuu_o5iozgW-10" target="zREBdyt6PTl3s11dmr7Y-90">
          <mxGeometry width="160" relative="1" as="geometry">
            <mxPoint x="990" y="280" as="sourcePoint" />
            <mxPoint x="1150" y="280" as="targetPoint" />
            <Array as="points">
              <mxPoint x="1190" y="280" />
              <mxPoint x="1050" y="280" />
            </Array>
          </mxGeometry>
        </mxCell>
        <mxCell id="3VFCQNdzrhuu_o5iozgW-17" value="" style="endArrow=diamondThin;endFill=1;endSize=24;html=1;rounded=0;entryX=1.001;entryY=0.069;entryDx=0;entryDy=0;entryPerimeter=0;exitX=0.001;exitY=0.137;exitDx=0;exitDy=0;exitPerimeter=0;" edge="1" parent="1" source="zREBdyt6PTl3s11dmr7Y-97" target="zREBdyt6PTl3s11dmr7Y-3">
          <mxGeometry width="160" relative="1" as="geometry">
            <mxPoint x="1340" y="370" as="sourcePoint" />
            <mxPoint x="1500" y="370" as="targetPoint" />
          </mxGeometry>
        </mxCell>
        <mxCell id="3VFCQNdzrhuu_o5iozgW-18" value="" style="endArrow=diamondThin;endFill=1;endSize=24;html=1;rounded=0;entryX=1.002;entryY=0.925;entryDx=0;entryDy=0;entryPerimeter=0;exitX=0;exitY=0.117;exitDx=0;exitDy=0;exitPerimeter=0;" edge="1" parent="1" source="zREBdyt6PTl3s11dmr7Y-76" target="zREBdyt6PTl3s11dmr7Y-4">
          <mxGeometry width="160" relative="1" as="geometry">
            <mxPoint x="1330" y="410" as="sourcePoint" />
            <mxPoint x="1490" y="410" as="targetPoint" />
          </mxGeometry>
        </mxCell>
        <mxCell id="3VFCQNdzrhuu_o5iozgW-19" value="TextMirror" style="swimlane;fontStyle=1;align=center;verticalAlign=top;childLayout=stackLayout;horizontal=1;startSize=26;horizontalStack=0;resizeParent=1;resizeParentMax=0;resizeLast=0;collapsible=1;marginBottom=0;whiteSpace=wrap;html=1;fillColor=#e1d5e7;strokeColor=#9673a6;" vertex="1" parent="1">
          <mxGeometry x="1430" y="532" width="210" height="104" as="geometry" />
        </mxCell>
        <mxCell id="3VFCQNdzrhuu_o5iozgW-20" value="- realText: TextMeshProUGUI&lt;br&gt;- fakeText: TextMeshProUGUI" style="text;strokeColor=none;fillColor=none;align=left;verticalAlign=top;spacingLeft=4;spacingRight=4;overflow=hidden;rotatable=0;points=[[0,0.5],[1,0.5]];portConstraint=eastwest;whiteSpace=wrap;html=1;" vertex="1" parent="3VFCQNdzrhuu_o5iozgW-19">
          <mxGeometry y="26" width="210" height="44" as="geometry" />
        </mxCell>
        <mxCell id="3VFCQNdzrhuu_o5iozgW-21" value="" style="line;strokeWidth=1;fillColor=none;align=left;verticalAlign=middle;spacingTop=-1;spacingLeft=3;spacingRight=3;rotatable=0;labelPosition=right;points=[];portConstraint=eastwest;strokeColor=inherit;" vertex="1" parent="3VFCQNdzrhuu_o5iozgW-19">
          <mxGeometry y="70" width="210" height="8" as="geometry" />
        </mxCell>
        <mxCell id="3VFCQNdzrhuu_o5iozgW-22" value="- Update(): void" style="text;strokeColor=none;fillColor=none;align=left;verticalAlign=top;spacingLeft=4;spacingRight=4;overflow=hidden;rotatable=0;points=[[0,0.5],[1,0.5]];portConstraint=eastwest;whiteSpace=wrap;html=1;" vertex="1" parent="3VFCQNdzrhuu_o5iozgW-19">
          <mxGeometry y="78" width="210" height="26" as="geometry" />
        </mxCell>
        <mxCell id="3VFCQNdzrhuu_o5iozgW-25" value="StageManager" style="swimlane;fontStyle=1;align=center;verticalAlign=top;childLayout=stackLayout;horizontal=1;startSize=26;horizontalStack=0;resizeParent=1;resizeParentMax=0;resizeLast=0;collapsible=1;marginBottom=0;whiteSpace=wrap;html=1;" vertex="1" parent="1">
          <mxGeometry x="70" y="948.5" width="350" height="300" as="geometry" />
        </mxCell>
        <mxCell id="3VFCQNdzrhuu_o5iozgW-26" value="- characterObject: GameObject&lt;br&gt;- character: IStageCharacter&lt;br&gt;&lt;br&gt;- HAPPY_BIRTHDAY_STAGE_PREFAB_NAME: const string&lt;br&gt;- happyBirthdayStage: HappyBirthdayStage&lt;br&gt;- HAPPY_NEW_YEAR_STAGE_PREFAB_NAME: const string&lt;br&gt;- happyNewYearStage: HappyNewYearStage&lt;br&gt;- MERRY_CHRISTMAS_STAGE_PREFAB_NAME: const string&lt;br&gt;- merryChristmasStage: MerryChristmasStage&lt;br&gt;&lt;br&gt;- stageLight: Light" style="text;strokeColor=none;fillColor=none;align=left;verticalAlign=top;spacingLeft=4;spacingRight=4;overflow=hidden;rotatable=0;points=[[0,0.5],[1,0.5]];portConstraint=eastwest;whiteSpace=wrap;html=1;" vertex="1" parent="3VFCQNdzrhuu_o5iozgW-25">
          <mxGeometry y="26" width="350" height="164" as="geometry" />
        </mxCell>
        <mxCell id="3VFCQNdzrhuu_o5iozgW-27" value="" style="line;strokeWidth=1;fillColor=none;align=left;verticalAlign=middle;spacingTop=-1;spacingLeft=3;spacingRight=3;rotatable=0;labelPosition=right;points=[];portConstraint=eastwest;strokeColor=inherit;" vertex="1" parent="3VFCQNdzrhuu_o5iozgW-25">
          <mxGeometry y="190" width="350" height="8" as="geometry" />
        </mxCell>
        <mxCell id="3VFCQNdzrhuu_o5iozgW-28" value="+ Initialize(GameObject, HappyBirthdayStage, HappyNewYearStage, MerryChristmasStage, Light)&lt;br&gt;&lt;br&gt;- SetupStageBeforeAnnouncement(GameState): void&lt;br&gt;- SetupStageAfterAnnouncement(): void&lt;br&gt;- SetupStageAfterShout(bool): void" style="text;strokeColor=none;fillColor=none;align=left;verticalAlign=top;spacingLeft=4;spacingRight=4;overflow=hidden;rotatable=0;points=[[0,0.5],[1,0.5]];portConstraint=eastwest;whiteSpace=wrap;html=1;" vertex="1" parent="3VFCQNdzrhuu_o5iozgW-25">
          <mxGeometry y="198" width="350" height="102" as="geometry" />
        </mxCell>
        <mxCell id="3VFCQNdzrhuu_o5iozgW-33" value="Singleton" style="swimlane;fontStyle=1;align=center;verticalAlign=top;childLayout=stackLayout;horizontal=1;startSize=26;horizontalStack=0;resizeParent=1;resizeParentMax=0;resizeLast=0;collapsible=1;marginBottom=0;whiteSpace=wrap;html=1;" vertex="1" parent="1">
          <mxGeometry x="70" y="1307.5" width="160" height="60" as="geometry" />
        </mxCell>
        <mxCell id="3VFCQNdzrhuu_o5iozgW-34" value="+ Instance" style="text;strokeColor=none;fillColor=none;align=left;verticalAlign=top;spacingLeft=4;spacingRight=4;overflow=hidden;rotatable=0;points=[[0,0.5],[1,0.5]];portConstraint=eastwest;whiteSpace=wrap;html=1;" vertex="1" parent="3VFCQNdzrhuu_o5iozgW-33">
          <mxGeometry y="26" width="160" height="26" as="geometry" />
        </mxCell>
        <mxCell id="3VFCQNdzrhuu_o5iozgW-35" value="" style="line;strokeWidth=1;fillColor=none;align=left;verticalAlign=middle;spacingTop=-1;spacingLeft=3;spacingRight=3;rotatable=0;labelPosition=right;points=[];portConstraint=eastwest;strokeColor=inherit;" vertex="1" parent="3VFCQNdzrhuu_o5iozgW-33">
          <mxGeometry y="52" width="160" height="8" as="geometry" />
        </mxCell>
        <mxCell id="3VFCQNdzrhuu_o5iozgW-36" value="Extends" style="endArrow=block;endSize=16;endFill=0;html=1;rounded=0;exitX=0.229;exitY=0.998;exitDx=0;exitDy=0;exitPerimeter=0;entryX=0.5;entryY=0;entryDx=0;entryDy=0;" edge="1" parent="1" target="3VFCQNdzrhuu_o5iozgW-33" source="3VFCQNdzrhuu_o5iozgW-28">
          <mxGeometry width="160" relative="1" as="geometry">
            <mxPoint x="150" y="1034.5" as="sourcePoint" />
            <mxPoint x="250" y="1024.5" as="targetPoint" />
          </mxGeometry>
        </mxCell>
        <mxCell id="3VFCQNdzrhuu_o5iozgW-38" value="&lt;p style=&quot;margin:0px;margin-top:4px;text-align:center;&quot;&gt;&lt;i&gt;&amp;lt;&amp;lt;Interface&amp;gt;&amp;gt;&lt;/i&gt;&lt;br&gt;&lt;b&gt;IStageCharacter&lt;/b&gt;&lt;/p&gt;&lt;hr size=&quot;1&quot;&gt;&lt;p style=&quot;margin:0px;margin-left:4px;&quot;&gt;+ FeelNeutral(): void&lt;br&gt;&lt;/p&gt;&lt;p style=&quot;margin:0px;margin-left:4px;&quot;&gt;+ FeelHappy(): void&lt;/p&gt;&lt;p style=&quot;margin:0px;margin-left:4px;&quot;&gt;+ FeelSad(): void&lt;/p&gt;&lt;p style=&quot;margin:0px;margin-left:4px;&quot;&gt;&lt;br&gt;&lt;/p&gt;&lt;p style=&quot;margin:0px;margin-left:4px;&quot;&gt;+ WearHat(bool): void&lt;/p&gt;" style="verticalAlign=top;align=left;overflow=fill;fontSize=12;fontFamily=Helvetica;html=1;whiteSpace=wrap;" vertex="1" parent="1">
          <mxGeometry x="540" y="1167.5" width="190" height="119" as="geometry" />
        </mxCell>
        <mxCell id="3VFCQNdzrhuu_o5iozgW-39" value="Mia" style="swimlane;fontStyle=1;align=center;verticalAlign=top;childLayout=stackLayout;horizontal=1;startSize=26;horizontalStack=0;resizeParent=1;resizeParentMax=0;resizeLast=0;collapsible=1;marginBottom=0;whiteSpace=wrap;html=1;fillColor=#e1d5e7;strokeColor=#9673a6;" vertex="1" parent="1">
          <mxGeometry x="500" y="1336.5" width="270" height="140" as="geometry" />
        </mxCell>
        <mxCell id="3VFCQNdzrhuu_o5iozgW-40" value="- hat: GameObject&lt;br&gt;- face: SkinnedMeshRenderer&lt;br&gt;- faceMesh: Mesh&lt;br&gt;- happyDict: Dict&amp;lt;BlendShapeName, int&amp;gt;&lt;br&gt;- sadDict: Dict&amp;lt;BlendShapeName, int&amp;gt;" style="text;strokeColor=none;fillColor=none;align=left;verticalAlign=top;spacingLeft=4;spacingRight=4;overflow=hidden;rotatable=0;points=[[0,0.5],[1,0.5]];portConstraint=eastwest;whiteSpace=wrap;html=1;" vertex="1" parent="3VFCQNdzrhuu_o5iozgW-39">
          <mxGeometry y="26" width="270" height="84" as="geometry" />
        </mxCell>
        <mxCell id="3VFCQNdzrhuu_o5iozgW-41" value="" style="line;strokeWidth=1;fillColor=none;align=left;verticalAlign=middle;spacingTop=-1;spacingLeft=3;spacingRight=3;rotatable=0;labelPosition=right;points=[];portConstraint=eastwest;strokeColor=inherit;" vertex="1" parent="3VFCQNdzrhuu_o5iozgW-39">
          <mxGeometry y="110" width="270" height="8" as="geometry" />
        </mxCell>
        <mxCell id="3VFCQNdzrhuu_o5iozgW-42" value="- SetEmotion(Dict&amp;lt;BlendShapeName, int&amp;gt;): void" style="text;strokeColor=none;fillColor=none;align=left;verticalAlign=top;spacingLeft=4;spacingRight=4;overflow=hidden;rotatable=0;points=[[0,0.5],[1,0.5]];portConstraint=eastwest;whiteSpace=wrap;html=1;" vertex="1" parent="3VFCQNdzrhuu_o5iozgW-39">
          <mxGeometry y="118" width="270" height="22" as="geometry" />
        </mxCell>
        <mxCell id="3VFCQNdzrhuu_o5iozgW-43" value="" style="endArrow=block;dashed=1;endFill=0;endSize=12;html=1;rounded=0;exitX=0.494;exitY=-0.006;exitDx=0;exitDy=0;entryX=0.493;entryY=1.007;entryDx=0;entryDy=0;entryPerimeter=0;exitPerimeter=0;" edge="1" parent="1" source="3VFCQNdzrhuu_o5iozgW-39" target="3VFCQNdzrhuu_o5iozgW-38">
          <mxGeometry width="160" relative="1" as="geometry">
            <mxPoint x="520" y="1326.5" as="sourcePoint" />
            <mxPoint x="550" y="1286.5" as="targetPoint" />
          </mxGeometry>
        </mxCell>
        <mxCell id="3VFCQNdzrhuu_o5iozgW-45" value="&lt;p style=&quot;margin:0px;margin-top:4px;text-align:center;&quot;&gt;&lt;i&gt;&amp;lt;&amp;lt;Enumeration&amp;gt;&amp;gt;&lt;/i&gt;&lt;br&gt;&lt;b&gt;BlendShapeName&lt;/b&gt;&lt;/p&gt;&lt;hr size=&quot;1&quot;&gt;&lt;p style=&quot;margin:0px;margin-left:4px;&quot;&gt;+ mouthSmileLeft&lt;br&gt;&lt;/p&gt;&lt;p style=&quot;margin:0px;margin-left:4px;&quot;&gt;+ mouthSmileRight&lt;/p&gt;&lt;p style=&quot;margin:0px;margin-left:4px;&quot;&gt;+ cheekSquintLeft&lt;/p&gt;&lt;p style=&quot;margin:0px;margin-left:4px;&quot;&gt;+ cheekSquintRight&lt;/p&gt;&lt;p style=&quot;margin:0px;margin-left:4px;&quot;&gt;+ mouthFrownLeft&lt;/p&gt;&lt;p style=&quot;margin:0px;margin-left:4px;&quot;&gt;+ mouthFrownRight&lt;/p&gt;&lt;p style=&quot;margin:0px;margin-left:4px;&quot;&gt;+ browDownLeft&lt;/p&gt;&lt;p style=&quot;margin:0px;margin-left:4px;&quot;&gt;+ browDownRight&lt;/p&gt;&lt;p style=&quot;margin:0px;margin-left:4px;&quot;&gt;+ browInnerUp&lt;/p&gt;" style="verticalAlign=top;align=left;overflow=fill;fontSize=12;fontFamily=Helvetica;html=1;whiteSpace=wrap;" vertex="1" parent="1">
          <mxGeometry x="250" y="1336.5" width="190" height="180" as="geometry" />
        </mxCell>
        <mxCell id="3VFCQNdzrhuu_o5iozgW-49" value="HappyBirthdayStage" style="swimlane;fontStyle=1;align=center;verticalAlign=top;childLayout=stackLayout;horizontal=1;startSize=26;horizontalStack=0;resizeParent=1;resizeParentMax=0;resizeLast=0;collapsible=1;marginBottom=0;whiteSpace=wrap;html=1;" vertex="1" parent="1">
          <mxGeometry x="470" y="948.5" width="180" height="60" as="geometry" />
        </mxCell>
        <mxCell id="3VFCQNdzrhuu_o5iozgW-50" value="- elements: List&amp;lt;GameObject&amp;gt;" style="text;strokeColor=none;fillColor=none;align=left;verticalAlign=top;spacingLeft=4;spacingRight=4;overflow=hidden;rotatable=0;points=[[0,0.5],[1,0.5]];portConstraint=eastwest;whiteSpace=wrap;html=1;" vertex="1" parent="3VFCQNdzrhuu_o5iozgW-49">
          <mxGeometry y="26" width="180" height="26" as="geometry" />
        </mxCell>
        <mxCell id="3VFCQNdzrhuu_o5iozgW-51" value="" style="line;strokeWidth=1;fillColor=none;align=left;verticalAlign=middle;spacingTop=-1;spacingLeft=3;spacingRight=3;rotatable=0;labelPosition=right;points=[];portConstraint=eastwest;strokeColor=inherit;" vertex="1" parent="3VFCQNdzrhuu_o5iozgW-49">
          <mxGeometry y="52" width="180" height="8" as="geometry" />
        </mxCell>
        <mxCell id="3VFCQNdzrhuu_o5iozgW-53" value="HappyNewYearStage" style="swimlane;fontStyle=1;align=center;verticalAlign=top;childLayout=stackLayout;horizontal=1;startSize=26;horizontalStack=0;resizeParent=1;resizeParentMax=0;resizeLast=0;collapsible=1;marginBottom=0;whiteSpace=wrap;html=1;" vertex="1" parent="1">
          <mxGeometry x="470" y="1019.5" width="180" height="60" as="geometry" />
        </mxCell>
        <mxCell id="3VFCQNdzrhuu_o5iozgW-54" value="- elements: List&amp;lt;GameObject&amp;gt;" style="text;strokeColor=none;fillColor=none;align=left;verticalAlign=top;spacingLeft=4;spacingRight=4;overflow=hidden;rotatable=0;points=[[0,0.5],[1,0.5]];portConstraint=eastwest;whiteSpace=wrap;html=1;" vertex="1" parent="3VFCQNdzrhuu_o5iozgW-53">
          <mxGeometry y="26" width="180" height="26" as="geometry" />
        </mxCell>
        <mxCell id="3VFCQNdzrhuu_o5iozgW-55" value="" style="line;strokeWidth=1;fillColor=none;align=left;verticalAlign=middle;spacingTop=-1;spacingLeft=3;spacingRight=3;rotatable=0;labelPosition=right;points=[];portConstraint=eastwest;strokeColor=inherit;" vertex="1" parent="3VFCQNdzrhuu_o5iozgW-53">
          <mxGeometry y="52" width="180" height="8" as="geometry" />
        </mxCell>
        <mxCell id="3VFCQNdzrhuu_o5iozgW-56" value="MerryChristmasStage" style="swimlane;fontStyle=1;align=center;verticalAlign=top;childLayout=stackLayout;horizontal=1;startSize=26;horizontalStack=0;resizeParent=1;resizeParentMax=0;resizeLast=0;collapsible=1;marginBottom=0;whiteSpace=wrap;html=1;" vertex="1" parent="1">
          <mxGeometry x="470" y="1089.5" width="180" height="60" as="geometry" />
        </mxCell>
        <mxCell id="3VFCQNdzrhuu_o5iozgW-57" value="- elements: List&amp;lt;GameObject&amp;gt;" style="text;strokeColor=none;fillColor=none;align=left;verticalAlign=top;spacingLeft=4;spacingRight=4;overflow=hidden;rotatable=0;points=[[0,0.5],[1,0.5]];portConstraint=eastwest;whiteSpace=wrap;html=1;" vertex="1" parent="3VFCQNdzrhuu_o5iozgW-56">
          <mxGeometry y="26" width="180" height="26" as="geometry" />
        </mxCell>
        <mxCell id="3VFCQNdzrhuu_o5iozgW-58" value="" style="line;strokeWidth=1;fillColor=none;align=left;verticalAlign=middle;spacingTop=-1;spacingLeft=3;spacingRight=3;rotatable=0;labelPosition=right;points=[];portConstraint=eastwest;strokeColor=inherit;" vertex="1" parent="3VFCQNdzrhuu_o5iozgW-56">
          <mxGeometry y="52" width="180" height="8" as="geometry" />
        </mxCell>
        <mxCell id="3VFCQNdzrhuu_o5iozgW-59" value="" style="endArrow=diamondThin;endFill=0;endSize=24;html=1;rounded=0;entryX=0.999;entryY=0.05;entryDx=0;entryDy=0;entryPerimeter=0;exitX=0;exitY=0.25;exitDx=0;exitDy=0;" edge="1" parent="1" source="3VFCQNdzrhuu_o5iozgW-49" target="3VFCQNdzrhuu_o5iozgW-25">
          <mxGeometry width="160" relative="1" as="geometry">
            <mxPoint x="470" y="927.5" as="sourcePoint" />
            <mxPoint x="630" y="927.5" as="targetPoint" />
          </mxGeometry>
        </mxCell>
        <mxCell id="3VFCQNdzrhuu_o5iozgW-60" value="" style="endArrow=diamondThin;endFill=0;endSize=24;html=1;rounded=0;entryX=0.999;entryY=0.05;entryDx=0;entryDy=0;entryPerimeter=0;exitX=0;exitY=0.25;exitDx=0;exitDy=0;" edge="1" parent="1">
          <mxGeometry width="160" relative="1" as="geometry">
            <mxPoint x="470" y="1027.5" as="sourcePoint" />
            <mxPoint x="420" y="1027.5" as="targetPoint" />
          </mxGeometry>
        </mxCell>
        <mxCell id="3VFCQNdzrhuu_o5iozgW-61" value="" style="endArrow=diamondThin;endFill=0;endSize=24;html=1;rounded=0;entryX=0.999;entryY=0.05;entryDx=0;entryDy=0;entryPerimeter=0;exitX=0;exitY=0.25;exitDx=0;exitDy=0;" edge="1" parent="1">
          <mxGeometry width="160" relative="1" as="geometry">
            <mxPoint x="470" y="1098.4299999999998" as="sourcePoint" />
            <mxPoint x="420" y="1098.4299999999998" as="targetPoint" />
          </mxGeometry>
        </mxCell>
        <mxCell id="3VFCQNdzrhuu_o5iozgW-62" value="have" style="endArrow=open;endFill=1;endSize=12;html=1;rounded=0;entryX=1.004;entryY=0.12;entryDx=0;entryDy=0;entryPerimeter=0;exitX=-0.002;exitY=0.155;exitDx=0;exitDy=0;exitPerimeter=0;" edge="1" parent="1" source="3VFCQNdzrhuu_o5iozgW-39" target="3VFCQNdzrhuu_o5iozgW-45">
          <mxGeometry width="160" relative="1" as="geometry">
            <mxPoint x="380" y="1317.5" as="sourcePoint" />
            <mxPoint x="540" y="1317.5" as="targetPoint" />
          </mxGeometry>
        </mxCell>
      </root>
    </mxGraphModel>
  </diagram>
</mxfile>
